
  <svg xmlns="http://www.w3.org/2000/svg" width="24" height="24" viewBox="0 0 24 24" fill="none" stroke="white" stroke-width="2" stroke-linecap="round" stroke-linejoin="round">
    <circle cx="12" cy="12" r="3"></circle>
    <path d="M19.4 15a2 2 0 0 0 .5 2.2l.1.1a2 2 0 1 1-2.8 2.8l-.1-.1a2 2 0 0 0-2.2-.5 2 2 0 0 0-1.2 1.8V22a2 2 0 1 1-4 0v-.4a2 2 0 0 0-1.2-1.8 2 2 0 0 0-2.2.5l-.1.1a2 2 0 1 1-2.8-2.8l.1-.1a2 2 0 0 0 .5-2.2 2 2 0 0 0-1.8-1.2H2a2 2 0 1 1 0-4h.4a2 2 0 0 0 1.8-1.2 2 2 0 0 0-.5-2.2l-.1-.1a2 2 0 1 1 2.8-2.8l.1.1a2 2 0 0 0 2.2.5 2 2 0 0 0 1.2-1.8V2a2 2 0 1 1 4 0v.4a2 2 0 0 0 1.2 1.8 2 2 0 0 0 2.2-.5l.1-.1a2 2 0 1 1 2.8 2.8l-.1.1a2 2 0 0 0-.5 2.2 2 2 0 0 0 1.8 1.2H22a2 2 0 1 1 0 4h-.4a2 2 0 0 0-1.8 1.2z"></path>
  </svg>
