<?xml version="1.0" encoding="UTF-8"?>
<svg id="Calque_1" data-name="Calque 1" xmlns="http://www.w3.org/2000/svg" version="1.1" xmlns:xlink="http://www.w3.org/1999/xlink" viewBox="0 0 512 512">
  <defs>
    <style>
      .cls-1 {
        fill: url(#Dégradé_sans_nom_2);
        stroke-width: 0px;
      }
    </style>
    <linearGradient id="Dégradé_sans_nom_2" data-name="Dégradé sans nom 2" x1="3.5" y1="258" x2="508.5" y2="258" gradientTransform="translate(0 514) scale(1 -1)" gradientUnits="userSpaceOnUse">
      <stop offset="0" stop-color="#e4191f"/>
      <stop offset=".3" stop-color="#df1d28"/>
      <stop offset=".5" stop-color="#843089"/>
      <stop offset="1" stop-color="#0084c9"/>
    </linearGradient>
  </defs>
  <path class="cls-1" d="M426,204.4h-37.9c-5.7-3.5-12.3-5.3-18.9-5.3h-48.9l-18.3-20.6-7-7.9h74.9c20,0,38.9,9.2,50.9,25.2.9,1.2,1.7,2.3,2.4,3.4,2.1,3.2,3,5.3,3,5.3h0ZM132.8,289c-9.3,0-16.9-7.6-16.9-16.9s7.6-16.9,16.9-16.9h69.2l-18.3-26.8h-50.9c-24.1,0-43.7,19.5-43.7,43.6s19.5,43.6,43.7,43.6h69.2l-10.6-26.8h-58.6ZM399.4,268c-1.9,2.9-4.5,6.4-8.1,9.8-4.8,4.7-9.6,7.8-13.4,9.7h-128.3c-6.5,0-9.8-7.7-5.5-12.4,0,0,.2-.2.3-.3l6.9-6.9,12-12,23.8-24.9h0c4.1-4.4,7-9.9,8.4-16,.6-2.6.9-5.3.9-8s0-1.8-.1-2.7c-.1-1.8-.4-3.6-.8-5.3-.8-3.6-2.2-7.1-4.1-10.2-1-2.6-3.2-7-7.7-11-6.5-5.8-13.7-7-16.5-7.4h-125.1c-36.7,4.7-49.9,44.6-49.9,44.6h30.3c1.2-2.7,3.1-6.3,6.4-9.8,5.5-6,11.7-8.6,15-9.8l120,1.1c14.6,4.8,1.3,18.5,1.3,18.5l-16,16-24.9,24.9h0c-3.2,3.4-4.3,7.5-5.9,12-1.4,3.8-2.2,7.9-2.2,12.3s.3,5,.8,7.3c.8,3.8,2.2,7.4,4.1,10.6,6.2,10.5,17.6,17.6,30.7,17.6h127.7c3.6,0,7.2-.9,10.4-2.5,7.2-3.7,17.3-10.4,25.5-21.8.9-1.3,1.8-2.6,2.6-3.8,4.7-7.4,7.1-14.5,8.5-19.6h-27.2,0ZM399.9,251.3h-57.9v-28.3h86.2c0,15.6-12.7,28.3-28.3,28.3h0ZM508.5,315.8c-10.8,45.5-34.1,87.3-68,121.2-48.4,48.4-112.6,75-181,75s-132.7-26.6-181-75C30.1,388.7,3.5,324.4,3.5,256S30.1,123.3,78.5,75C126.8,26.6,191.1,0,259.5,0s132.7,26.6,181,75c27.4,27.4,47.9,60,60.4,95.5h-42.4c-33.1-77.1-109.8-131.1-199.1-131.1S42.9,136.4,42.9,256s97,216.6,216.6,216.6,182.3-66.3,208.2-156.8h40.8ZM508.5,315.8h0"/>
</svg>